<?xml version="1.0" encoding="UTF-8" standalone="no"?>
<svg
   clip-rule="evenodd"
   fill-rule="evenodd"
   stroke-linejoin="round"
   stroke-miterlimit="2"
   viewBox="0 0 48 48"
   version="1.1"
   id="svg25"
   sodipodi:docname="accessories-image-viewer.svg"
   inkscape:version="1.1.2 (0a00cf5339, 2022-02-04)"
   xmlns:inkscape="http://www.inkscape.org/namespaces/inkscape"
   xmlns:sodipodi="http://sodipodi.sourceforge.net/DTD/sodipodi-0.dtd"
   xmlns:xlink="http://www.w3.org/1999/xlink"
   xmlns="http://www.w3.org/2000/svg"
   xmlns:svg="http://www.w3.org/2000/svg">
  <defs
     id="defs29">
    <path
       d="m69.63 12.145h-.052c-22.727-.292-46.47 4.077-46.709 4.122-2.424.451-4.946 2.974-5.397 5.397-.044.237-4.414 23.983-4.122 46.71-.292 22.777 4.078 46.523 4.122 46.761.451 2.423 2.974 4.945 5.398 5.398.237.044 23.982 4.413 46.709 4.121 22.779.292 46.524-4.077 46.761-4.121 2.423-.452 4.946-2.976 5.398-5.399.044-.236 4.413-23.981 4.121-46.709.292-22.777-4.077-46.523-4.121-46.761-.453-2.423-2.976-4.946-5.398-5.397-.238-.045-23.984-4.414-46.71-4.122"
       id="3" />
    <clipPath
       id="clipPath578">
      <use
         xlink:href="#3"
         id="use576" />
    </clipPath>
    <linearGradient
       gradientTransform="matrix(1.03744,0.1329,-0.12755,0.99183,-44.44,-65.12)"
       id="2"
       x1="542.83"
       y1="484.29"
       x2="543.25"
       y2="463.62"
       gradientUnits="userSpaceOnUse">
      <stop
         stop-color="#132e51"
         id="stop580" />
      <stop
         offset="1"
         stop-color="#2767b9"
         id="stop582" />
    </linearGradient>
    <linearGradient
       y2="534.53"
       x2="497.84"
       y1="516.8"
       x1="480.12"
       gradientUnits="userSpaceOnUse"
       xlink:href="#1"
       id="linearGradient585" />
    <linearGradient
       y2="527.53"
       x2="494.84"
       y1="509.8"
       x1="477.12"
       gradientUnits="userSpaceOnUse"
       xlink:href="#1"
       id="linearGradient587" />
    <linearGradient
       xlink:href="#1"
       gradientUnits="userSpaceOnUse"
       x1="479.57"
       y1="516.45"
       x2="494.57"
       y2="531.45"
       id="linearGradient589" />
    <linearGradient
       id="1">
      <stop
         stop-color="#2e5d89"
         id="stop591" />
      <stop
         offset="1"
         stop-color="#1b92f4"
         id="stop593" />
    </linearGradient>
    <linearGradient
       gradientTransform="matrix(1.05233,0,0,1.02761,-21.18,-14.703)"
       gradientUnits="userSpaceOnUse"
       y2="504.19"
       x2="409.94"
       y1="542.8"
       x1="409.57"
       id="0">
      <stop
         stop-color="#86d0fb"
         id="stop596" />
      <stop
         offset="1"
         stop-color="#2794f5"
         id="stop598" />
    </linearGradient>
    <linearGradient
       xlink:href="#1"
       gradientUnits="userSpaceOnUse"
       x1="399.12"
       y1="510.3"
       x2="416.84"
       y2="528.03"
       id="linearGradient601" />
  </defs>
  <sodipodi:namedview
     id="namedview27"
     pagecolor="#ffffff"
     bordercolor="#666666"
     borderopacity="1.0"
     inkscape:pageshadow="2"
     inkscape:pageopacity="0.0"
     inkscape:pagecheckerboard="0"
     showgrid="false"
     inkscape:zoom="11.313708"
     inkscape:cx="1.016466"
     inkscape:cy="15.423767"
     inkscape:window-width="1360"
     inkscape:window-height="692"
     inkscape:window-x="0"
     inkscape:window-y="0"
     inkscape:window-maximized="1"
     inkscape:current-layer="g626" />
  <linearGradient
     id="a"
     x2="1"
     gradientTransform="matrix(-0.0595533,-5.5650791,35.183,-0.00941986,604.496,8.3066265)"
     gradientUnits="userSpaceOnUse">
    <stop
       stop-color="#f086fb"
       offset="0"
       id="stop2" />
    <stop
       stop-color="#4392f6"
       offset="1"
       id="stop4" />
  </linearGradient>
  <linearGradient
     id="b"
     x2="1"
     gradientTransform="matrix(0 -26.4447 26.4447 0 524.651 45.7093)"
     gradientUnits="userSpaceOnUse">
    <stop
       stop-color="#222e44"
       offset="0"
       id="stop7" />
    <stop
       stop-color="#2767b9"
       offset="1"
       id="stop9" />
  </linearGradient>
  <linearGradient
     id="c"
     x2="1"
     gradientTransform="matrix(-.079163 -8.15775 8.15775 -.079163 783.084 10.826)"
     gradientUnits="userSpaceOnUse">
    <stop
       stop-color="#eefefe"
       stop-opacity=".8"
       offset="0"
       id="stop12" />
    <stop
       stop-color="#d6fefe"
       stop-opacity=".8"
       offset="1"
       id="stop14" />
  </linearGradient>
  <path
     transform="matrix(1.0387 .113643 -.113643 1.0387 .973694 -3.34528)"
     d="m16.341 12.062c.194-.018 3.75-.472 4.005 1.613.257 2.086-1.228 3.987-3.313 4.243-2.086.257-3.986-1.228-4.243-3.314-.255-2.085 3.042-2.494 3.551-2.542z"
     fill="url(#c)"
     id="path21" />
  <g
     transform="translate(-383.46308,-500.29284)"
     id="g632">
    <flowRoot
       transform="translate(389.57,520.8)"
       font-family="sans-serif"
       text-align="start"
       word-spacing="0"
       line-height="125%"
       letter-spacing="0"
       font-size="10px"
       id="flowRoot610"><flowRegion
         id="flowRegion606"><path
           d="m22 3h27v15h-27z"
           id="4" /></flowRegion><flowPara
         id="flowPara608">Plasm</flowPara></flowRoot>
    <g
       transform="matrix(1.57597,0,0,1.57597,-223.89981,-310.83341)"
       id="g630">
      <rect
         y="507.12"
         x="385.62"
         height="34.938999"
         width="46.299999"
         fill="url(#0)"
         rx="1.6440001"
         stroke-width="1"
         transform="matrix(0.65763,0,0,0.65763,131.81,186.74)"
         id="rect612"
         style="fill:url(#0)" />
      <g
         transform="translate(-36.836,-0.954)"
         id="g628">
        <flowRoot
           transform="translate(389.57,520.8)"
           font-family="sans-serif"
           letter-spacing="0"
           word-spacing="0"
           text-align="start"
           line-height="125%"
           font-size="10px"
           id="flowRoot620"><flowRegion
             id="flowRegion616"><use
               xlink:href="#4"
               id="use614" /></flowRegion><flowPara
             id="flowPara618">Plasm</flowPara></flowRoot>
        <g
           transform="matrix(0.37339,-0.04589,0.04589,0.37339,243.97,379.44)"
           id="g626">
          <path
             d="m 418.93,476.09 15.912,-2.498 4.568,3.717 11.916,-2.094 10.881,4.975 7.95,2.692 6.5,-1.142 7.926,-0.747 16.205,-8.689 -3.197,27.1 c -0.159,3.559 -3.701,2.873 -3.701,2.873 l -74.27,-9.129 c 0,0 -2.691,-1.031 -2.305,-4.111 z"
             fill="url(#2)"
             fill-rule="evenodd"
             id="path622"
             style="fill:url(#2)" />
          <ellipse
             cx="435.53268"
             cy="446.58087"
             fill="#ffffff"
             fill-opacity="0.75"
             id="circle624"
             rx="5.2334814"
             ry="5.0132637"
             transform="matrix(0.99998623,0.0052481,0.00547851,0.99998499,0,0)"
             style="stroke-width:0.73425" />
        </g>
      </g>
    </g>
  </g>
  <path
     d="m 1.4482747,18.183504 c -0.156,0.218 -0.235,0.348 -0.235,0.348 -0.099,0.165 -0.31399999,0.218 -0.47799999,0.118 -0.165,-0.099 -0.218,-0.314 -0.118,-0.478 0,0 3.10199999,-5.12 8.79599999,-5.016 5.6880013,0.103 8.7100013,5.013 8.7100013,5.013 0.101,0.164 0.049,0.379 -0.114,0.48 -0.164,0.101 -0.379,0.049 -0.48,-0.114 0,0 -0.085,-0.139 -0.253,-0.368 -0.286,0.269 -3.679,3.274 -8.1370013,3.274 -4.615,0 -7.597,-3.159 -7.691,-3.257 z m 15.7060013,-0.179 c -0.216,-0.281 -3.85,-3.149 -7.7990013,-3.149 -4.459,0 -7.544,2.839 -7.792,3.17 0.006,0.004 0.011,0.008 0.016,0.013 0,0 3.594,2.734 7.55,2.734 3.9550013,0 7.7090013,-2.518 8.0250013,-2.768 z"
     fill="#cae8fd"
     id="path23" />
</svg>
