<?xml version="1.0" encoding="UTF-8" standalone="no"?>
<svg
   clip-rule="evenodd"
   fill-rule="evenodd"
   stroke-linejoin="round"
   stroke-miterlimit="2"
   viewBox="0 0 48 48"
   version="1.1"
   id="svg23"
   sodipodi:docname="AdobePhotoshop.svg"
   inkscape:version="1.1.2 (0a00cf5339, 2022-02-04)"
   xmlns:inkscape="http://www.inkscape.org/namespaces/inkscape"
   xmlns:sodipodi="http://sodipodi.sourceforge.net/DTD/sodipodi-0.dtd"
   xmlns:xlink="http://www.w3.org/1999/xlink"
   xmlns="http://www.w3.org/2000/svg"
   xmlns:svg="http://www.w3.org/2000/svg">
  <defs
     id="defs27">
    <linearGradient
       inkscape:collect="always"
       xlink:href="#a"
       id="linearGradient925"
       x1="2.332"
       y1="24"
       x2="45.667999"
       y2="24"
       gradientUnits="userSpaceOnUse" />
    <linearGradient
       inkscape:collect="always"
       xlink:href="#linearGradient3466"
       id="linearGradient853"
       x1="2.332"
       y1="24"
       x2="45.667999"
       y2="24"
       gradientUnits="userSpaceOnUse" />
    <linearGradient
       inkscape:collect="always"
       xlink:href="#linearGradient3466"
       id="linearGradient1009"
       x1="12.479"
       y1="23.999207"
       x2="35.573299"
       y2="23.999207"
       gradientUnits="userSpaceOnUse" />
  </defs>
  <sodipodi:namedview
     id="namedview25"
     pagecolor="#ffffff"
     bordercolor="#666666"
     borderopacity="1.0"
     inkscape:pageshadow="2"
     inkscape:pageopacity="0.0"
     inkscape:pagecheckerboard="0"
     showgrid="false"
     inkscape:zoom="11"
     inkscape:cx="-20.045455"
     inkscape:cy="21.636364"
     inkscape:window-width="1360"
     inkscape:window-height="692"
     inkscape:window-x="0"
     inkscape:window-y="0"
     inkscape:window-maximized="1"
     inkscape:current-layer="svg23"
     guidecolor="#0000ff"
     guideopacity="0.07843137"
     inkscape:snap-global="true" />
  <linearGradient
     id="linearGradient3466">
    <stop
       stop-color="#0a80fd"
       offset="0"
       id="stop2" />
    <stop
       stop-color="#56c5fa"
       offset="1"
       id="stop4" />
  </linearGradient>
  <linearGradient
     id="a"
     x2="1"
     gradientTransform="matrix(-.0595534 -34.8401 34.8401 -.0595534 558.096 40.5057)"
     gradientUnits="userSpaceOnUse">
    <stop
       stop-color="#000374"
       offset="0"
       id="stop7" />
    <stop
       stop-color="#0a3294"
       offset="1"
       id="stop9" />
  </linearGradient>
  <linearGradient
     id="c"
     x2="1"
     xlink:href="#a"
     gradientUnits="objectBoundingBox">
    <stop
       stop-color="#2d81c9"
       offset="0"
       id="stop12" />
    <stop
       stop-color="#40a7ff"
       offset="1"
       id="stop14" />
  </linearGradient>
  <path
     d="m45.668 8.56c0-3.438-2.79-6.228-6.228-6.228h-30.88c-3.438 0-6.228 2.79-6.228 6.228v30.88c0 3.438 2.79 6.228 6.228 6.228h30.88c3.438 0 6.228-2.79 6.228-6.228z"
     fill="url(#a)"
     id="path17"
     style="fill-opacity:1;fill:url(#linearGradient925);stroke:url(#linearGradient853);stroke-width:1;stroke-miterlimit:2;stroke-dasharray:none" />
  <path
     d="m34.168 19.528c-3.119-1.573-8.488-.811-8.488 3.292 0 3.056 2.115 4.259 4.7 5.269 3.674 1.434.103 4.144-4.381 1.341 0 0-.161-.079-.239 0-.08.079-.08.158-.08.24v2.944c1.567.803 2.738 1.211 4.547 1.192 5.838-.06 6.678-5.65 3.573-7.799-.563-.392-2.07-1.173-2.547-1.355-2.468-.942-2.258-2.281-1.474-2.955.865-.749 3.265.383 4.275 1.014.612.378.712-.092.71-.506l-.008-1.957c0-.465-.161-.503-.588-.72zm-21.689-5.067v19.269h3.663v-6.21c4.501.321 8.562-1.292 8.562-6.496 0-2.098-.654-4.21-2.202-5.485-2.163-1.785-7.219-1.389-10.023-1.078zm4.575 2.606c-.241.002-.492.009-.753.023-.033 0-.159.122-.159.157v7.326c2.134 0 5.256-.079 5.079-3.802-.141-2.939-1.574-3.702-4.101-3.704z"
     fill="url(#c)"
     id="path21"
     style="fill-opacity:1.0;fill:url(#linearGradient1009)" />
</svg>
