<?xml version="1.0" encoding="UTF-8" standalone="no"?>
<svg
   width="198"
   height="196"
   viewBox="0 0 198 196"
   fill="none"
   version="1.1"
   id="svg20"
   sodipodi:docname="AdobeIllustrator 1.svg"
   inkscape:version="1.1.2 (0a00cf5339, 2022-02-04)"
   xmlns:inkscape="http://www.inkscape.org/namespaces/inkscape"
   xmlns:sodipodi="http://sodipodi.sourceforge.net/DTD/sodipodi-0.dtd"
   xmlns:xlink="http://www.w3.org/1999/xlink"
   xmlns="http://www.w3.org/2000/svg"
   xmlns:svg="http://www.w3.org/2000/svg">
  <sodipodi:namedview
     id="namedview22"
     pagecolor="#ffffff"
     bordercolor="#666666"
     borderopacity="1.0"
     inkscape:pageshadow="2"
     inkscape:pageopacity="0.0"
     inkscape:pagecheckerboard="0"
     showgrid="false"
     inkscape:zoom="2.6938776"
     inkscape:cx="34.337121"
     inkscape:cy="127.69697"
     inkscape:window-width="1360"
     inkscape:window-height="692"
     inkscape:window-x="0"
     inkscape:window-y="0"
     inkscape:window-maximized="1"
     inkscape:current-layer="svg20" />
  <rect
     width="198"
     height="196"
     fill="white"
     id="rect2"
     style="fill:#ffffff;fill-opacity:0" />
  <path
     d="m 188.48548,34.8736 c -0.002,-6.752 -2.71199,-13.227 -7.53499,-18.0017 -4.82301,-4.7748 -11.363,-7.45875 -18.184,-7.462 H 35.233885 c -6.8209,0.00325 -13.3615,2.6872 -18.1842,7.462 -4.8227,4.7747 -7.53299,11.2497 -7.53517,18.0017 v 126.2525 c 0.00218,6.752 2.71247,13.227 7.53517,18.002 4.8227,4.775 11.3633,7.458 18.1842,7.462 H 162.76648 c 6.821,-0.002 13.362,-2.686 18.185,-7.461 4.823,-4.775 7.533,-11.251 7.534,-18.003 z"
     fill="url(#paint0_linear_9_2)"
     id="path4"
     style="fill:url(#paint0_linear_9_2);stroke:url(#linearGradient968);stroke-width:5;stroke-miterlimit:4;stroke-dasharray:none" />
  <path
     d="m 99.040934,120.80793 h -27.3447 l -5.5893,17.101 c -0.0631,0.311 -0.2414,0.588 -0.5001,0.776 -0.2587,0.188 -0.5791,0.274 -0.8983,0.24 h -13.8188 c -0.8085,0 -1.0271,-0.437 -0.8085,-1.31 l 23.6693,-67.453006 c 0.2186,-0.7268 0.4414,-1.5272 0.7384,-2.401 0.297,-1.5272 0.4413,-3.1319 0.4413,-4.7285 -0.0742,-0.3634 0.2187,-0.7309 0.5858,-0.8003 h 19.0369 c 0.5857,0 0.8827,0.2164 0.957,0.5798 l 26.828706,74.946006 c 0.219,0.8 0,1.163 -0.738,1.163 h -15.362 c -0.515,0.074 -1.027,-0.294 -1.175,-0.8 z m -23.0794,-14.774 h 18.6697 c -0.5169,-1.76 -1.0794,-3.507 -1.6871,-5.239 -0.6924,-2.075306 -1.3539,-4.160706 -1.9841,-6.255506 -0.7343,-2.2581 -1.3984,-4.4386 -2.1285,-6.6926 -0.7088,-2.1442 -1.3703,-4.3034 -1.9841,-6.4761 -0.5858,-2.0376 -1.1014,-3.9282 -1.617,-5.6759 h -0.1444 c -0.66,3.1728 -1.4933,6.3047 -2.4998,9.3876 -1.1013,3.4913 -2.2068,7.1295 -3.3825,10.7718 -0.9566,3.4308 -2.038,6.826706 -3.2422,10.179706 z M 138.73164,74.968024 c -1.206,0.0256 -2.406,-0.186 -3.529,-0.6227 -1.123,-0.4367 -2.147,-1.0897 -3.013,-1.9212 -1.682,-1.8233 -2.579,-4.2246 -2.5,-6.6926 -0.043,-1.2027 0.17,-2.401 0.625,-3.5168 0.456,-1.1158 1.144,-2.1242 2.019,-2.9594 1.767,-1.6531 4.111,-2.5648 6.542,-2.5439 2.867,0 5.074,0.8738 6.691,2.5439 1.63,1.764 2.5,4.0874 2.426,6.4762 0.044,1.2289 -0.16,2.4541 -0.602,3.6035 -0.441,1.1495 -1.11,2.1998 -1.968,3.0891 -0.867,0.8725 -1.913,1.551 -3.067,1.9898 -1.154,0.4388 -2.39,0.6278 -3.624,0.5541 z m -8.233,63.156906 V 82.097524 c 0,-0.7309 0.297,-1.0168 0.957,-1.0168 h 14.553 c 0.66,0 0.957,0.3635 0.957,1.0168 v 56.027406 c 0,0.8 -0.297,1.164 -0.957,1.164 h -14.409 c -0.73,0 -1.101,-0.437 -1.101,-1.164 z"
     fill="url(#paint1_linear_9_2)"
     id="path6"
     style="fill:url(#linearGradient1000)" />
  <defs
     id="defs18">
    <linearGradient
       id="paint0_linear_9_2"
       x1="1.74758e+06"
       y1="185.602"
       x2="1.74758e+06"
       y2="10.1979"
       gradientUnits="userSpaceOnUse"
       gradientTransform="translate(-0.088515,-0.0879)">
      <stop
         stop-color="#330000"
         id="stop8" />
      <stop
         offset="1"
         stop-color="#660000"
         id="stop10" />
    </linearGradient>
    <linearGradient
       id="paint1_linear_9_2"
       x1="1.74758e+06"
       y1="185.602"
       x2="1.74758e+06"
       y2="10.1979"
       gradientUnits="userSpaceOnUse">
      <stop
         stop-color="#FF9A00"
         id="stop13" />
      <stop
         offset="1"
         stop-color="#FFCD00"
         id="stop15" />
    </linearGradient>
    <linearGradient
       inkscape:collect="always"
       xlink:href="#paint1_linear_9_2"
       id="linearGradient968"
       x1="9.6030302"
       y1="98.087898"
       x2="188.57401"
       y2="98.087898"
       gradientUnits="userSpaceOnUse"
       gradientTransform="translate(-0.088515,-0.0879)" />
    <linearGradient
       inkscape:collect="always"
       xlink:href="#paint1_linear_9_2"
       id="linearGradient1000"
       gradientUnits="userSpaceOnUse"
       x1="1.74758e+06"
       y1="185.602"
       x2="1.74758e+06"
       y2="10.1979"
       gradientTransform="translate(-3.6691902e-4,-0.00607644)" />
  </defs>
</svg>
