<?xml version="1.0" encoding="UTF-8" standalone="no"?>
<svg
   clip-rule="evenodd"
   fill-rule="evenodd"
   stroke-linejoin="round"
   stroke-miterlimit="2"
   viewBox="0 0 48 48"
   version="1.1"
   id="svg16"
   sodipodi:docname="applications-utilities.svg"
   inkscape:version="1.1.2 (0a00cf5339, 2022-02-04)"
   xmlns:inkscape="http://www.inkscape.org/namespaces/inkscape"
   xmlns:sodipodi="http://sodipodi.sourceforge.net/DTD/sodipodi-0.dtd"
   xmlns="http://www.w3.org/2000/svg"
   xmlns:svg="http://www.w3.org/2000/svg">
  <defs
     id="defs20">
    <linearGradient
       id="b-3"
       x2="1"
       gradientTransform="matrix(0,-28.4319,28.4319,0,23.999821,34.271825)"
       gradientUnits="userSpaceOnUse">
      <stop
         stop-color="#d3d3d3"
         stop-opacity=".9"
         offset="0"
         id="stop7-6" />
      <stop
         stop-color="#fcf9f9"
         stop-opacity=".9"
         offset="1"
         id="stop9-7" />
    </linearGradient>
    <linearGradient
       id="0"
       gradientUnits="userSpaceOnUse"
       y1="27.13"
       x2="0"
       y2="-20.875">
      <stop
         stop-color="#0973d9"
         id="stop1224" />
      <stop
         offset="1"
         stop-color="#0cbffe"
         id="stop1226" />
    </linearGradient>
  </defs>
  <sodipodi:namedview
     id="namedview18"
     pagecolor="#ffffff"
     bordercolor="#666666"
     borderopacity="1.0"
     inkscape:pageshadow="2"
     inkscape:pageopacity="0.0"
     inkscape:pagecheckerboard="0"
     showgrid="false"
     inkscape:zoom="11"
     inkscape:cx="43.136364"
     inkscape:cy="24"
     inkscape:window-width="1360"
     inkscape:window-height="692"
     inkscape:window-x="0"
     inkscape:window-y="0"
     inkscape:window-maximized="1"
     inkscape:current-layer="svg16" />
  <linearGradient
     id="a"
     x2="1"
     gradientTransform="matrix(0,-45.465,45.465,0,-1.8599005,46.6561)"
     gradientUnits="userSpaceOnUse">
    <stop
       stop-color="#6c6d6e"
       offset="0"
       id="stop2" />
    <stop
       stop-color="#9b9c9e"
       offset="1"
       id="stop4" />
  </linearGradient>
  <linearGradient
     id="b"
     x2="1"
     gradientTransform="matrix(0 -28.4319 28.4319 0 24.0274 34.1592)"
     gradientUnits="userSpaceOnUse">
    <stop
       stop-color="#d3d3d3"
       stop-opacity=".9"
       offset="0"
       id="stop7" />
    <stop
       stop-color="#fcf9f9"
       stop-opacity=".9"
       offset="1"
       id="stop9" />
  </linearGradient>
  <g
     transform="matrix(0.99999,0,0,0.99999,-43.379327,20.875031)"
     enable-background="new"
     id="g1235">
    <rect
       y="-20.875"
       x="43.380001"
       height="48"
       width="48"
       fill="url(#0)"
       rx="24"
       id="rect1231"
       style="fill:url(#0)"
       ry="24" />
  </g>
  <path
     d="m 35.793421,33.139625 -8.608,-8.609 c -0.081,-0.081 -0.167,-0.153 -0.256,-0.22 l 1.525,-1.605 c 0.078,-0.079 0.152,-0.162 0.22,-0.246 2.024,0.763 4.399,0.334 6.026,-1.293 1.186,-1.187 1.785,-2.828 1.64,-4.504 -0.016,-0.189 -0.141,-0.353 -0.32,-0.418 -0.179,-0.065 -0.379,-0.021 -0.514,0.114 l -2.759,2.758 -2.793,-0.704 -0.792,-2.881 2.758,-2.759 c 0.135,-0.135 0.179,-0.335 0.114,-0.514 -0.065,-0.179 -0.229,-0.304 -0.419,-0.321 -1.675,-0.144 -3.316,0.454 -4.504,1.641 -1.625,1.626 -2.055,4 -1.293,6.023 -0.083,0.07 -0.165,0.145 -0.246,0.224 l -2.244,2.156 -4.121,-4.121 c -0.052,-0.051 -0.106,-0.097 -0.163,-0.139 0.048,-0.085 0.095,-0.173 0.139,-0.263 0.871,0.167 2.462,-1.528 3.813,-2.878 l -3.937,-3.937 c -1.76,1.76 -3.045,2.942 -2.879,3.812 -0.402,0.197 -0.761,0.437 -1.016,0.692 l -0.554,0.555 c -0.36,0.36 -0.577,0.809 -0.655,1.276 -0.054,0.061 -0.108,0.126 -0.163,0.195 l -0.206,0.26 c -0.006,0.006 -0.024,0.032 -0.029,0.038 l -0.187,0.263 c -0.117,0.156 -0.22,0.326 -0.319,0.49 -0.036,0.06 -0.074,0.121 -0.112,0.182 -0.006,0.011 -0.012,0.021 -0.017,0.031 l -0.083,0.157 c -0.101,0.189 -0.205,0.384 -0.294,0.599 l -0.015,0.034 c -0.105,0.25 -0.214,0.509 -0.291,0.784 l -0.036,0.119 c -0.031,0.098 -0.061,0.195 -0.089,0.311 l -0.077,0.379 c -0.057,0.237 -0.076,0.471 -0.093,0.678 l -0.011,0.136 c -0.028,0.215 -0.02,0.417 -0.012,0.596 0.002,0.059 0.005,0.118 0.006,0.197 0.002,0.033 0.003,0.065 0.004,0.097 0.002,0.08 0.004,0.17 0.019,0.266 l 0.048,0.307 c 0.011,0.06 0.019,0.117 0.027,0.173 0.019,0.125 0.038,0.254 0.075,0.376 l 0.201,0.699 c 0.062,0.212 0.264,0.353 0.485,0.338 0.117,-0.009 0.222,-0.059 0.3,-0.137 0.07,-0.07 0.118,-0.162 0.133,-0.266 l 0.104,-0.71 c 0.008,-0.056 0.032,-0.139 0.057,-0.226 0.018,-0.061 0.035,-0.123 0.049,-0.175 l 0.074,-0.266 c 0.009,-0.035 0.027,-0.07 0.042,-0.106 0.015,-0.034 0.029,-0.068 0.043,-0.102 0.025,-0.056 0.048,-0.112 0.071,-0.17 0.046,-0.113 0.089,-0.22 0.155,-0.325 0.029,-0.048 0.055,-0.096 0.083,-0.145 0.069,-0.124 0.134,-0.24 0.212,-0.336 0.004,-0.006 0.009,-0.012 0.014,-0.019 l 0.175,-0.242 c 0.036,-0.045 0.076,-0.088 0.116,-0.131 0.027,-0.031 0.055,-0.061 0.09,-0.102 0.104,-0.124 0.225,-0.233 0.342,-0.339 l 0.063,-0.057 c 0.087,-0.08 0.188,-0.156 0.293,-0.236 0.043,-0.033 0.086,-0.065 0.127,-0.096 0.054,-0.035 0.105,-0.069 0.156,-0.104 0.096,-0.064 0.178,-0.12 0.274,-0.17 l 0.207,-0.118 0.21,-0.103 c 0.074,-0.038 0.146,-0.067 0.212,-0.094 0.04,-0.016 0.079,-0.032 0.115,-0.048 0.037,-0.012 0.072,-0.026 0.106,-0.039 0.045,-0.016 0.084,-0.032 0.137,-0.045 l 0.056,-0.013 c 0.062,0.1 0.135,0.195 0.221,0.282 l 4.077,4.076 -8.702,8.358 c -0.004,0.003 -0.007,0.007 -0.01,0.01 -1.083,1.083 -1.259,2.669 -0.176,3.752 1.083,1.083 2.568,0.805 3.65,-0.277 l 0.014,-0.014 7.676,-8.083 c 0.045,0.053 0.09,0.106 0.14,0.156 l 8.608,8.609 c 0.964,0.965 2.529,0.965 3.493,0 0.965,-0.965 0.965,-2.529 0,-3.493 z m -21.054,1.932 c -0.399,0.399 -1.045,0.399 -1.444,0 -0.399,-0.399 -0.399,-1.045 0,-1.444 0.398,-0.399 1.045,-0.399 1.444,0 0.398,0.399 0.398,1.045 0,1.444 z"
     fill="url(#b)"
     fill-rule="nonzero"
     id="path14"
     style="fill:#ffffff;fill-opacity:0.9981398;opacity:1" />
</svg>
