<?xml version="1.0" encoding="UTF-8" standalone="no"?>
<svg
   height="48"
   width="48"
   version="1.1"
   id="svg27"
   sodipodi:docname="gnome-shell-extension-prefs.svg"
   inkscape:version="1.1.2 (0a00cf5339, 2022-02-04)"
   xmlns:inkscape="http://www.inkscape.org/namespaces/inkscape"
   xmlns:sodipodi="http://sodipodi.sourceforge.net/DTD/sodipodi-0.dtd"
   xmlns:xlink="http://www.w3.org/1999/xlink"
   xmlns="http://www.w3.org/2000/svg"
   xmlns:svg="http://www.w3.org/2000/svg">
  <defs
     id="defs31" />
  <sodipodi:namedview
     id="namedview29"
     pagecolor="#ffffff"
     bordercolor="#666666"
     borderopacity="1.0"
     inkscape:pageshadow="2"
     inkscape:pageopacity="0.0"
     inkscape:pagecheckerboard="0"
     showgrid="false"
     inkscape:zoom="11"
     inkscape:cx="23.954545"
     inkscape:cy="24"
     inkscape:window-width="1360"
     inkscape:window-height="692"
     inkscape:window-x="0"
     inkscape:window-y="0"
     inkscape:window-maximized="1"
     inkscape:current-layer="svg27" />
  <linearGradient
     id="a">
    <stop
       offset="0"
       stop-color="#3889e9"
       id="stop2" />
    <stop
       offset="1"
       stop-color="#5ea5fb"
       id="stop4" />
  </linearGradient>
  <linearGradient
     id="b"
     gradientUnits="userSpaceOnUse"
     x1="399.57144"
     x2="399.57144"
     xlink:href="#a"
     y1="545.79797"
     y2="517.79797" />
  <linearGradient
     id="c"
     gradientUnits="userSpaceOnUse"
     x1="400.5119"
     x2="400.69922"
     y1="546.07446"
     y2="517.77289">
    <stop
       offset="0"
       stop-color="#4c93dd"
       id="stop8" />
    <stop
       offset="1"
       stop-color="#56c5fd"
       id="stop10" />
  </linearGradient>
  <linearGradient
     gradientUnits="userSpaceOnUse"
     x1="-.5"
     x2="536"
     xlink:href="#a"
     y1="267.75"
     y2="267.75"
     id="linearGradient13" />
  <g
     transform="matrix(1.470071230936 0 0 1.470071230936 -564.966298160151 -757.847829609598)"
     id="g23">
    <circle
       cx="400.57138"
       cy="531.79791"
       fill="url(#b)"
       r="0"
       id="circle15" />
    <g
       transform="matrix(1.117536624128 0 0 1.117536624128 -47.015292188816 -62.460177851153)"
       id="g21">
      <circle
         cx="400.57138"
         cy="531.79791"
         fill="url(#c)"
         r="13.999958"
         id="circle17" />
      <circle
         cx="400.57144"
         cy="531.79797"
         fill="none"
         r="13.999958"
         id="circle19" />
    </g>
  </g>
  <path
     d="m 34.504619,22.273199 h -1.642857 v -4.380952 c 0,-1.204762 -0.985714,-2.190476 -2.190476,-2.190476 h -4.380953 v -1.642857 c 0,-1.533334 -1.204761,-2.738096 -2.738095,-2.738096 -1.533333,0 -2.738095,1.204762 -2.738095,2.738096 v 1.642857 h -4.380952 c -1.204762,0 -2.190476,0.985714 -2.190476,2.190476 v 4.161904 h 1.642857 c 1.642857,0 2.957143,1.314286 2.957143,2.957143 0,1.642857 -1.314286,2.957143 -2.957143,2.957143 h -1.642857 v 4.161905 c 0,1.204761 0.985714,2.190476 2.190476,2.190476 h 4.161905 v -1.642857 c 0,-1.642858 1.314285,-2.957143 2.957142,-2.957143 1.642857,0 2.957143,1.314285 2.957143,2.957143 v 1.642857 h 4.161905 c 1.204762,0 2.190476,-0.985715 2.190476,-2.190476 v -4.380953 h 1.642857 c 1.533333,0 2.738095,-1.204762 2.738095,-2.738095 0,-1.533333 -1.204762,-2.738095 -2.738095,-2.738095 z"
     fill="#ffffff"
     fill-opacity="0.85"
     id="path25"
     style="stroke-width:0.0429505" />
</svg>
