<?xml version="1.0" encoding="UTF-8" standalone="no"?>
<svg
   clip-rule="evenodd"
   fill-rule="evenodd"
   stroke-linejoin="round"
   stroke-miterlimit="2"
   viewBox="0 0 48 48"
   version="1.1"
   id="svg11"
   sodipodi:docname="applications-office.svg"
   inkscape:version="1.1.2 (0a00cf5339, 2022-02-04)"
   xmlns:inkscape="http://www.inkscape.org/namespaces/inkscape"
   xmlns:sodipodi="http://sodipodi.sourceforge.net/DTD/sodipodi-0.dtd"
   xmlns:xlink="http://www.w3.org/1999/xlink"
   xmlns="http://www.w3.org/2000/svg"
   xmlns:svg="http://www.w3.org/2000/svg">
  <defs
     id="defs15">
    <linearGradient
       id="a-6"
       x2="1"
       gradientTransform="matrix(-1.55529,-43.5485,43.5485,-1.55529,22619.896,-762.3924)"
       gradientUnits="userSpaceOnUse"
       xlink:href="#a">
      <stop
         stop-color="#898686"
         offset="0"
         id="stop2-7" />
      <stop
         stop-color="#fcf9f9"
         offset="1"
         id="stop4-5" />
    </linearGradient>
  </defs>
  <sodipodi:namedview
     id="namedview13"
     pagecolor="#ffffff"
     bordercolor="#666666"
     borderopacity="1.0"
     inkscape:pageshadow="2"
     inkscape:pageopacity="0.0"
     inkscape:pagecheckerboard="0"
     showgrid="true"
     inkscape:zoom="11"
     inkscape:cx="12.590909"
     inkscape:cy="24"
     inkscape:window-width="1360"
     inkscape:window-height="692"
     inkscape:window-x="0"
     inkscape:window-y="0"
     inkscape:window-maximized="1"
     inkscape:current-layer="g213">
    <inkscape:grid
       type="xygrid"
       id="grid1373" />
  </sodipodi:namedview>
  <linearGradient
     id="a"
     x2="1"
     gradientTransform="matrix(-1.55529,-43.5485,43.5485,-1.55529,22642.433,-760.19983)"
     gradientUnits="userSpaceOnUse">
    <stop
       stop-color="#898686"
       offset="0"
       id="stop2" />
    <stop
       stop-color="#fcf9f9"
       offset="1"
       id="stop4" />
  </linearGradient>
  <circle
     style="fill:#ff2200;fill-opacity:1;fill-rule:evenodd;stroke-width:1.24786"
     id="path3949"
     cx="24"
     cy="24"
     r="22.882"
     sodipodi:insensitive="true" />
  <g
     id="g213"
     transform="translate(0.231,2)"
     mask="none"
     inkscape:label="g213"
     style="display:inline"
     inkscape:groupmode="layer">
    <path
       d="m 17.667,34.186999 c -4.395,-1.546 -8.005,-2.825 -8.022,-2.841 -0.017,-0.017 -0.022,-0.041 -0.01,-0.053 0.012,-0.012 3.633,0.403 8.045,0.922 6.083,0.716 7.292,0.93 7.321,0.887 0.049,-0.075 0.048,-21.038 -0.002,-21.113 -0.053,-0.082 -10.35,2.324 -10.438,2.439 -0.048,0.062 -0.061,1.575 -0.061,7.197 0,5.639 -0.013,7.128 -0.061,7.164 -0.091,0.07 -5.067,2.384 -5.137,2.384 -0.048,0 -0.058,-1.837 -0.048,-9.107 l 0.012,-9.106 6.28,-2.269 C 19,9.443 22.713,8.103 23.798,7.711 L 25.769,7 l 4.43,1.387 c 2.437,0.763 4.457,1.403 4.49,1.424 0.048,0.03 0.061,2.538999 0.061,12.285999 0,11.617 -0.004,12.25 -0.085,12.292 -0.148,0.078 -8.797,2.613 -8.904,2.611 -0.057,-0.001 -3.699,-1.267 -8.094,-2.813 z"
       fill="#ffffff"
       fill-rule="nonzero"
       id="path203" />
  </g>
</svg>
