<svg width="64" height="64" viewBox="0 0 64 64" fill="none" xmlns="http://www.w3.org/2000/svg">
<path d="M57.5862 15.6975C57.5692 14.3955 56.5672 13.3205 55.2712 13.2015C44.4992 12.1915 35.7082 6.4375 32.8102 4.3315C32.2042 3.8895 31.3843 3.8895 30.7783 4.3315C27.8853 6.4375 19.0952 12.1945 8.3222 13.2015C7.0262 13.3205 6.02926 14.3955 6.00726 15.6975C5.87726 24.1945 7.24121 53.0375 31.1472 59.4595C31.5722 59.5725 32.0192 59.5725 32.4432 59.4595C56.3482 53.0465 57.7132 24.1895 57.5832 15.6975" fill="url(#paint0_linear_61_22)"/>
<path d="M31.6154 38.2308C32.7968 38.2308 33.7692 37.2583 33.7692 36.077C33.7692 34.8816 32.8 33.9231 31.6154 33.9231C30.434 33.9231 29.4615 34.8956 29.4615 36.077C29.4615 37.2583 30.434 38.2308 31.6154 38.2308ZM38.077 28.5385C39.2584 28.5385 40.2308 29.5109 40.2308 30.6923V41.4616C40.2308 42.643 39.2584 43.6154 38.077 43.6154H25.1539C23.9725 43.6154 23 42.643 23 41.4616V30.6923C23 29.4969 23.9692 28.5385 25.1539 28.5385H26.2308V26.3846C26.2308 23.4306 28.6614 21 31.6154 21C34.5694 21 37 23.4306 37 26.3846V28.5385H38.077ZM31.6154 23.1539C29.8428 23.1539 28.3846 24.612 28.3846 26.3846V28.5385H34.8462V26.3846C34.8462 24.612 33.388 23.1539 31.6154 23.1539Z" fill="white"/>
<defs>
<linearGradient id="paint0_linear_61_22" x1="-769.424" y1="59.3075" x2="-769.424" y2="4.3875" gradientUnits="userSpaceOnUse">
<stop stop-color="#C52828"/>
<stop offset="1" stop-color="#FF5454"/>
</linearGradient>
</defs>
</svg>
