<svg width="45" height="48" viewBox="0 0 45 48" fill="none" xmlns="http://www.w3.org/2000/svg">
<path d="M44.4963 10.0897C44.4817 8.96669 43.6174 8.03946 42.4995 7.93681C33.208 7.06563 25.6252 2.10248 23.1255 0.285937C22.6028 -0.0953124 21.8955 -0.0953124 21.3728 0.285937C18.8774 2.10248 11.2954 7.06822 2.00304 7.93681C0.88516 8.03946 0.0252363 8.96669 0.00625989 10.0897C-0.105873 17.4189 1.07062 42.2976 21.691 47.8369C22.0576 47.9344 22.4432 47.9344 22.8089 47.8369C43.4285 42.3053 44.6059 17.4146 44.4937 10.0897" fill="url(#paint0_linear_66_25)"/>
<path d="M25.4165 24.2011L29.0944 20.5232C29.3282 20.2895 29.4446 20.0065 29.4446 19.6727C29.4446 19.3389 29.3282 19.056 29.0944 18.8223L27.3935 17.1204C27.1597 16.8867 26.8768 16.7702 26.5429 16.7702C26.2091 16.7702 25.9254 16.8867 25.6925 17.1204L22.0145 20.7984L18.3365 17.1204C18.1028 16.8867 17.8199 16.7702 17.486 16.7702C17.1522 16.7702 16.8693 16.8867 16.6356 17.1204L14.9337 18.8223C14.7 19.056 14.5835 19.3389 14.5835 19.6727C14.5835 20.0065 14.7 20.2895 14.9337 20.5232L18.6117 24.2011L14.9337 27.8791C14.7 28.1128 14.5835 28.3958 14.5835 28.7296C14.5835 29.0634 14.7 29.3463 14.9337 29.58L16.6356 31.281C16.8693 31.5148 17.1531 31.6312 17.486 31.6312C17.8199 31.6312 18.1028 31.5148 18.3365 31.281L22.0145 27.6031L25.6925 31.281C25.9262 31.5148 26.2091 31.6312 26.5429 31.6312C26.8768 31.6312 27.1597 31.5148 27.3935 31.281L29.0944 29.58C29.3282 29.3463 29.4446 29.0634 29.4446 28.7296C29.4446 28.3958 29.3282 28.1128 29.0944 27.8791L25.4165 24.2011Z" fill="white" fill-opacity="0.847"/>
<defs>
<linearGradient id="paint0_linear_66_25" x1="-668.851" y1="47.7058" x2="-668.851" y2="0.334242" gradientUnits="userSpaceOnUse">
<stop stop-color="#C52828"/>
<stop offset="1" stop-color="#FF5454"/>
</linearGradient>
</defs>
</svg>
