<svg width="46" height="48" viewBox="0 0 46 48" fill="none" xmlns="http://www.w3.org/2000/svg">
<path d="M45.3411 10.2692C45.3265 9.14624 44.4623 8.21859 43.3443 8.11601C34.0532 7.24695 26.4708 2.2816 23.9711 0.465366C23.4487 0.0845427 22.7408 0.0845427 22.2184 0.465366C19.7235 2.2816 12.1412 7.24695 2.85008 8.11601C1.73202 8.21859 0.872729 9.14624 0.8532 10.2692C0.740905 17.5976 1.91755 42.478 22.5357 48.0146C22.9019 48.1123 23.2876 48.1123 23.6538 48.0146C44.2719 42.4829 45.4485 17.5975 45.3411 10.2692Z" fill="url(#paint0_linear_66_3)"/>
<path d="M23.097 29.6337C23.3597 29.6337 23.6197 29.582 23.8624 29.4815C24.105 29.381 24.3255 29.2337 24.5112 29.048C24.697 28.8622 24.8443 28.6418 24.9448 28.3991C25.0453 28.1565 25.097 27.8964 25.097 27.6337C25.097 26.5237 24.197 25.6337 23.097 25.6337C22.8344 25.6337 22.5743 25.6855 22.3317 25.786C22.089 25.8865 21.8685 26.0338 21.6828 26.2195C21.4971 26.4053 21.3498 26.6257 21.2493 26.8684C21.1488 27.111 21.0971 27.3711 21.0971 27.6337C21.0971 28.1642 21.3078 28.6729 21.6828 29.048C22.0579 29.423 22.5666 29.6337 23.097 29.6337ZM29.097 20.6338C29.3597 20.6338 29.6197 20.6855 29.8624 20.786C30.105 20.8865 30.3255 21.0338 30.5112 21.2196C30.697 21.4053 30.8443 21.6258 30.9448 21.8684C31.0453 22.1111 31.097 22.3711 31.097 22.6337V32.6338C31.097 32.8964 31.0453 33.1564 30.9448 33.3991C30.8443 33.6417 30.697 33.8622 30.5112 34.0479C30.3255 34.2337 30.105 34.381 29.8624 34.4815C29.6197 34.582 29.3597 34.6337 29.097 34.6337H17.097C16.8344 34.6338 16.5743 34.582 16.3317 34.4815C16.089 34.381 15.8685 34.2337 15.6828 34.0479C15.4971 33.8622 15.3498 33.6417 15.2493 33.3991C15.1488 33.1564 15.097 32.8964 15.097 32.6338V22.6337C15.097 21.5237 15.997 20.6338 17.097 20.6338H18.097V18.6338C18.097 17.3077 18.6238 16.0359 19.5615 15.0982C20.4992 14.1606 21.771 13.6337 23.097 13.6337C24.4231 13.6337 25.6949 14.1606 26.6326 15.0982C27.5702 16.0359 28.097 17.3077 28.097 18.6338V20.6338H29.097ZM23.097 15.6338C22.7031 15.6338 22.313 15.7113 21.949 15.8621C21.585 16.0128 21.2543 16.2338 20.9757 16.5124C20.6971 16.791 20.4762 17.1217 20.3254 17.4857C20.1746 17.8497 20.097 18.2398 20.097 18.6338V20.6338H26.097V18.6338C26.097 18.2398 26.0194 17.8497 25.8687 17.4857C25.7179 17.1217 25.4969 16.791 25.2184 16.5124C24.9398 16.2338 24.6091 16.0128 24.2451 15.8621C23.8811 15.7113 23.491 15.6338 23.097 15.6338Z" fill="white"/>
<defs>
<linearGradient id="paint0_linear_66_3" x1="22.9561" y1="48.2878" x2="23.2377" y2="0.746619" gradientUnits="userSpaceOnUse">
<stop stop-color="#197CF1"/>
<stop offset="1" stop-color="#20BCFA"/>
</linearGradient>
</defs>
</svg>
