<svg width="45" height="48" viewBox="0 0 45 48" fill="none" xmlns="http://www.w3.org/2000/svg">
<path d="M44.4963 10.0897C44.4817 8.96669 43.6174 8.03946 42.4995 7.93681C33.208 7.06563 25.6252 2.10248 23.1255 0.285937C22.6028 -0.0953124 21.8955 -0.0953124 21.3728 0.285937C18.8774 2.10248 11.2955 7.06822 2.00309 7.93681C0.885213 8.03946 0.0252363 8.96669 0.00625989 10.0897C-0.105873 17.4189 1.07062 42.2976 21.691 47.8369C22.0576 47.9344 22.4432 47.9344 22.8089 47.8369C43.4285 42.3053 44.6059 17.4146 44.4937 10.0897" fill="url(#paint0_linear_67_30)"/>
<path d="M31.1525 19.6124L29.5223 17.9821C29.2989 17.7587 29.0272 17.6466 28.7071 17.6466C28.3871 17.6466 28.1154 17.7587 27.892 17.9821L20.0289 25.8573L16.5053 22.3216C16.2819 22.0982 16.0102 21.9861 15.6902 21.9861C15.3702 21.9861 15.0985 22.0982 14.8751 22.3216L13.2448 23.9519C13.0214 24.1753 12.9093 24.447 12.9093 24.767C12.9093 25.0861 13.0214 25.3587 13.2448 25.5821L19.2137 31.551C19.4372 31.7744 19.7089 31.8865 20.0289 31.8865C20.348 31.8865 20.6197 31.7744 20.844 31.551L31.1516 21.2434C31.375 21.02 31.4871 20.7483 31.4871 20.4283C31.4871 20.1092 31.375 19.8375 31.1516 19.6132" fill="white" fill-opacity="0.851"/>
<defs>
<linearGradient id="paint0_linear_67_30" x1="-636.341" y1="48.646" x2="-636.341" y2="0.342865" gradientUnits="userSpaceOnUse">
<stop stop-color="#2FAE61"/>
<stop offset="1" stop-color="#4BDF88"/>
</linearGradient>
</defs>
</svg>
