<?xml version="1.0" encoding="UTF-8" standalone="no"?>
<svg
   width="100%"
   height="100%"
   viewBox="0 0 16 16"
   version="1.1"
   id="svg9"
   sodipodi:docname="update-high.svg"
   inkscape:version="1.1.2 (0a00cf5339, 2022-02-04)"
   xmlns:inkscape="http://www.inkscape.org/namespaces/inkscape"
   xmlns:sodipodi="http://sodipodi.sourceforge.net/DTD/sodipodi-0.dtd"
   xmlns="http://www.w3.org/2000/svg"
   xmlns:svg="http://www.w3.org/2000/svg">
  <sodipodi:namedview
     id="namedview11"
     pagecolor="#ffffff"
     bordercolor="#666666"
     borderopacity="1.0"
     inkscape:pageshadow="2"
     inkscape:pageopacity="0.0"
     inkscape:pagecheckerboard="0"
     showgrid="false"
     inkscape:zoom="33"
     inkscape:cx="1.5909091"
     inkscape:cy="8"
     inkscape:window-width="1360"
     inkscape:window-height="692"
     inkscape:window-x="0"
     inkscape:window-y="0"
     inkscape:window-maximized="1"
     inkscape:current-layer="svg9" />
  <defs
     id="defs3">
    <style
       id="current-color-scheme"
       type="text/css">
   .ColorScheme-Text { color:#dfdfdf; } .ColorScheme-Highlight { color:#4285f4; } .ColorScheme-NeutralText { color:#ff9800; } .ColorScheme-PositiveText { color:#4caf50; } .ColorScheme-NegativeText { color:#f44336; }
  </style>
  </defs>
  <path
     style="fill:#4d4d4d;fill-opacity:1"
     class="ColorScheme-Text"
     d="m11.963 5c.262-.011.511.1.642.287l.651.928.65.924c.062.087.094.186.094.287 0 .315-.315.574-.699.574h-.303c0 1.279-.487 2.559-1.463 3.535s-2.255 1.465-3.535 1.465c-1.144 0-2.288-.393-3.215-1.174.241-.114.463-.287.639-.537v-.002l.685-.978c1.179.965 2.912.912 4.012-.188.586-.586.875-1.353.875-2.121h-.297c-.384 0-.699-.259-.699-.574 0-.101.032-.2.094-.287l.65-.924.651-.928c.117-.168.332-.276.568-.287zm-3.963-2c1.145 0 2.289.394 3.217 1.176-.245.116-.468.29-.641.537l-.685.978c-1.179-.965-2.912-.912-4.012.188-.586.586-.875 1.353-.875 2.121h.297c.384 0 .699.259.699.574 0 .101-.032.2-.094.287l-.65.924-.651.928c-.124.177-.356.287-.605.287s-.481-.11-.605-.287l-.651-.928-.65-.924c-.062-.087-.094-.186-.094-.287 0-.315.315-.574.699-.574h.303c0-1.279.487-2.559 1.463-3.535s2.255-1.465 3.535-1.465z"
     id="path5" />
  <circle
     style="fill:currentColor"
     class="ColorScheme-PositiveText"
     cx="14.5"
     cy="14.5"
     r="1.5"
     id="circle7" />
</svg>
