<svg width="46" height="49" viewBox="0 0 46 49" fill="none" xmlns="http://www.w3.org/2000/svg">
<path d="M45.0701 10.7123C45.0554 9.5892 44.1911 8.66195 43.0732 8.55931C33.7817 7.68813 26.1989 2.72498 23.6992 0.908435C23.1765 0.527185 22.4692 0.527185 21.9465 0.908435C19.4511 2.72498 11.8692 7.69072 2.57682 8.55931C1.45894 8.66195 0.598967 9.5892 0.57999 10.7123C0.467857 18.0414 1.6444 42.9201 22.2648 48.4594C22.6314 48.5569 23.017 48.5569 23.3827 48.4594C44.0022 42.9278 45.1796 18.0371 45.0675 10.7123" fill="url(#paint0_linear_67_37)"/>
<path d="M20.5647 16.1722V28.9372C20.5647 30.1594 21.5558 31.1505 22.778 31.1505C24.0003 31.1505 24.9914 30.1594 24.9914 28.9372V16.1722C24.9914 14.95 24.0003 13.9589 22.778 13.9589C21.5558 13.9589 20.5647 14.95 20.5647 16.1722Z" fill="#40330D"/>
<path d="M22.7815 33.4492C21.4963 33.4492 20.45 34.4946 20.45 35.7807C20.45 37.0659 21.4963 38.1122 22.7815 38.1122C24.0667 38.1122 25.113 37.0668 25.113 35.7807C25.113 34.4946 24.0667 33.4492 22.7815 33.4492Z" fill="#40330D"/>
<defs>
<linearGradient id="paint0_linear_67_37" x1="-621.828" y1="48.7941" x2="-621.828" y2="0.490958" gradientUnits="userSpaceOnUse">
<stop stop-color="#FFC515"/>
<stop offset="1" stop-color="#FFD55B"/>
</linearGradient>
</defs>
</svg>
