<svg width="22" height="22" viewBox="0 0 22 22" fill="none" xmlns="http://www.w3.org/2000/svg">
<path d="M3.03799 3C2.46299 3 2 3.42099 2 3.94299V18.053C2 18.575 2.46299 18.996 3.03799 18.996H18.563C19.138 18.996 19.601 18.575 19.601 18.053V3.94299C19.601 3.42099 19.138 3 18.563 3H3.03799ZM3.776 4.89203H17.826V14.199H15.026V15.509H13.476V17.108H8.17599V15.509H6.526V14.199H3.776V4.89203ZM5.19202 6.29803V9.979H7.19202V6.29803H5.19202ZM8.332 6.29803V9.979H10.332V6.29803H8.332ZM11.373 6.29803V9.979H13.373V6.29803H11.373ZM14.414 6.29803V9.979H16.414V6.29803H14.414Z" fill="#4d4d4d"/>
</svg>
